<svg id="svg" version="1.1" xmlns="http://www.w3.org/2000/svg" xmlns:xlink="http://www.w3.org/1999/xlink" width="400" height="313.04347826086956" viewBox="0, 0, 400,313.04347826086956"><g id="svgg"><path id="path0" d="M161.942 27.878 C 161.942 28.059,160.956 28.191,159.611 28.191 C 158.329 28.191,157.193 28.332,157.087 28.504 C 156.980 28.677,156.126 28.818,155.189 28.818 C 154.252 28.818,153.485 28.958,153.485 29.131 C 153.485 29.303,152.916 29.444,152.222 29.444 C 151.388 29.444,150.898 29.604,150.779 29.914 C 150.656 30.233,150.157 30.384,149.223 30.384 C 148.466 30.384,147.847 30.525,147.847 30.697 C 147.847 30.869,147.212 31.010,146.437 31.010 C 145.662 31.010,145.027 31.151,145.027 31.323 C 145.027 31.496,144.542 31.637,143.950 31.637 C 143.357 31.637,142.785 31.778,142.678 31.950 C 142.572 32.122,142.151 32.263,141.742 32.263 C 141.334 32.263,140.789 32.475,140.530 32.733 C 140.272 32.991,139.706 33.203,139.273 33.203 C 138.841 33.203,138.399 33.344,138.293 33.516 C 138.186 33.688,137.755 33.829,137.335 33.829 C 136.914 33.829,136.570 33.970,136.570 34.143 C 136.570 34.315,136.147 34.456,135.630 34.456 C 135.114 34.456,134.691 34.597,134.691 34.769 C 134.691 34.941,134.501 35.082,134.269 35.082 C 133.641 35.082,131.872 36.024,131.872 36.358 C 131.872 36.518,131.594 36.648,131.255 36.648 C 130.915 36.648,130.175 36.907,129.610 37.222 C 129.045 37.538,127.913 38.050,127.095 38.361 C 126.276 38.672,125.607 39.048,125.607 39.197 C 125.607 39.346,125.325 39.468,124.980 39.468 C 124.636 39.468,124.354 39.582,124.354 39.722 C 124.354 39.862,123.861 40.171,123.258 40.407 C 122.655 40.644,122.161 40.952,122.161 41.092 C 122.161 41.232,121.809 41.347,121.378 41.347 C 120.948 41.347,120.595 41.488,120.595 41.660 C 120.595 41.832,120.379 41.973,120.115 41.973 C 119.852 41.973,119.555 42.185,119.455 42.443 C 119.356 42.702,119.017 42.913,118.701 42.913 C 118.385 42.913,118.039 43.054,117.933 43.226 C 117.826 43.399,117.465 43.540,117.131 43.540 C 116.797 43.540,116.523 43.654,116.523 43.794 C 116.523 43.934,116.036 44.240,115.440 44.474 C 114.844 44.708,114.285 45.087,114.197 45.316 C 114.109 45.545,113.821 45.732,113.557 45.732 C 113.293 45.732,113.078 45.873,113.078 46.045 C 113.078 46.218,112.796 46.359,112.451 46.359 C 112.106 46.359,111.825 46.500,111.825 46.672 C 111.825 46.844,111.472 46.985,111.042 46.985 C 110.611 46.985,110.258 47.110,110.258 47.263 C 110.258 47.415,109.765 47.774,109.162 48.060 C 108.559 48.347,108.066 48.715,108.066 48.879 C 108.066 49.043,107.784 49.178,107.439 49.178 C 107.095 49.178,106.813 49.319,106.813 49.491 C 106.813 49.663,106.531 49.804,106.186 49.804 C 105.842 49.804,105.560 49.945,105.560 50.117 C 105.560 50.290,105.348 50.431,105.090 50.431 C 104.832 50.431,104.620 50.572,104.620 50.744 C 104.620 50.916,104.338 51.057,103.994 51.057 C 103.646 51.057,103.367 51.266,103.367 51.527 C 103.367 51.819,103.071 51.997,102.584 51.997 C 102.153 51.997,101.801 52.138,101.801 52.310 C 101.801 52.482,101.616 52.623,101.390 52.623 C 101.164 52.623,100.677 52.905,100.307 53.250 C 99.937 53.594,99.466 53.876,99.260 53.876 C 98.856 53.876,96.701 55.411,96.528 55.821 C 96.471 55.957,96.148 56.069,95.810 56.069 C 95.473 56.069,94.894 56.351,94.525 56.695 C 94.155 57.040,93.667 57.322,93.441 57.322 C 93.215 57.322,93.031 57.533,93.031 57.792 C 93.031 58.072,92.742 58.262,92.317 58.262 C 91.924 58.262,91.399 58.543,91.151 58.888 C 90.903 59.233,90.468 59.514,90.185 59.514 C 89.486 59.514,88.019 61.029,88.019 61.750 C 88.019 62.153,88.246 62.334,88.754 62.334 C 89.629 62.334,91.464 61.470,91.464 61.058 C 91.464 60.898,91.746 60.767,92.091 60.767 C 92.435 60.767,92.717 60.626,92.717 60.454 C 92.717 60.282,92.929 60.141,93.187 60.141 C 93.446 60.141,93.657 60.000,93.657 59.828 C 93.657 59.655,93.939 59.514,94.283 59.514 C 94.628 59.514,94.910 59.374,94.910 59.201 C 94.910 59.029,95.192 58.888,95.536 58.888 C 95.881 58.888,96.163 58.747,96.163 58.575 C 96.163 58.403,96.368 58.262,96.618 58.262 C 96.869 58.262,97.426 57.909,97.857 57.478 C 98.288 57.048,98.929 56.695,99.281 56.695 C 99.633 56.695,99.922 56.554,99.922 56.382 C 99.922 56.210,100.143 56.069,100.414 56.069 C 100.685 56.069,101.103 55.893,101.343 55.677 C 102.379 54.748,102.734 54.503,103.041 54.503 C 103.220 54.503,103.367 54.362,103.367 54.190 C 103.367 54.017,103.649 53.876,103.994 53.876 C 104.338 53.876,104.621 53.771,104.623 53.641 C 104.624 53.512,104.976 53.243,105.406 53.044 C 105.835 52.845,106.186 52.750,106.186 52.832 C 106.186 53.083,105.308 53.876,105.030 53.876 C 104.886 53.876,104.504 54.229,104.181 54.659 C 103.857 55.090,103.401 55.442,103.167 55.442 C 102.932 55.442,102.741 55.583,102.741 55.756 C 102.741 55.928,102.593 56.069,102.413 56.069 C 102.233 56.069,101.761 56.386,101.363 56.774 C 100.234 57.874,98.997 58.888,98.781 58.888 C 98.674 58.888,98.358 59.136,98.079 59.440 C 97.800 59.743,97.009 60.409,96.319 60.920 C 95.630 61.430,94.743 62.169,94.348 62.561 C 93.952 62.953,93.495 63.273,93.331 63.273 C 93.168 63.273,92.405 63.872,91.636 64.605 C 90.867 65.337,90.013 66.125,89.737 66.356 C 89.128 66.867,89.248 67.772,89.942 67.906 C 90.221 67.959,90.667 67.785,90.934 67.518 C 91.201 67.251,91.571 67.032,91.755 67.032 C 91.940 67.032,92.091 66.891,92.091 66.719 C 92.091 66.547,92.443 66.406,92.874 66.406 C 93.305 66.406,93.657 66.265,93.657 66.092 C 93.657 65.920,93.842 65.779,94.068 65.779 C 94.294 65.779,94.781 65.497,95.151 65.153 C 95.521 64.808,96.045 64.526,96.316 64.526 C 96.587 64.526,96.890 64.315,96.989 64.056 C 97.088 63.798,97.372 63.587,97.619 63.587 C 97.866 63.587,98.371 63.305,98.741 62.960 C 99.111 62.616,99.669 62.334,99.981 62.334 C 100.293 62.334,100.548 62.193,100.548 62.020 C 100.548 61.848,100.830 61.707,101.175 61.707 C 101.523 61.707,101.801 61.498,101.801 61.237 C 101.801 60.945,102.097 60.767,102.584 60.767 C 103.015 60.767,103.367 60.626,103.367 60.454 C 103.367 60.282,103.649 60.141,103.994 60.141 C 104.338 60.141,104.620 60.000,104.620 59.828 C 104.620 59.655,104.902 59.514,105.247 59.514 C 105.591 59.514,105.873 59.374,105.873 59.201 C 105.873 59.029,106.073 58.888,106.318 58.888 C 106.877 58.888,108.688 57.872,108.690 57.557 C 108.691 57.428,109.045 57.322,109.475 57.322 C 109.906 57.322,110.258 57.181,110.258 57.009 C 110.258 56.836,110.540 56.695,110.885 56.695 C 111.229 56.695,111.511 56.554,111.511 56.382 C 111.511 56.210,111.758 56.067,112.060 56.064 C 112.934 56.057,115.081 55.228,115.207 54.849 C 115.270 54.658,115.733 54.503,116.236 54.503 C 116.738 54.503,117.150 54.362,117.150 54.190 C 117.150 54.017,117.643 53.876,118.246 53.876 C 118.849 53.876,119.342 53.735,119.342 53.563 C 119.342 53.391,119.757 53.250,120.263 53.250 C 120.770 53.250,121.272 53.109,121.378 52.937 C 121.485 52.764,121.986 52.623,122.493 52.623 C 123.000 52.623,123.414 52.482,123.414 52.310 C 123.414 52.138,123.898 51.997,124.488 51.997 C 125.079 51.997,125.774 51.785,126.032 51.527 C 126.290 51.269,126.997 51.057,127.602 51.057 C 128.207 51.057,128.789 50.916,128.896 50.744 C 129.002 50.572,129.715 50.431,130.481 50.431 C 131.246 50.431,131.872 50.290,131.872 50.117 C 131.872 49.944,132.701 49.804,133.732 49.804 C 134.756 49.804,135.681 49.663,135.787 49.491 C 135.893 49.319,136.942 49.178,138.116 49.178 C 139.633 49.178,140.365 49.041,140.642 48.708 C 140.958 48.328,141.949 48.238,145.849 48.238 C 148.851 48.238,150.666 48.120,150.666 47.925 C 150.666 47.742,151.704 47.612,153.153 47.612 C 154.521 47.612,155.728 47.753,155.834 47.925 C 155.951 48.114,158.123 48.238,161.301 48.238 C 165.699 48.238,166.603 48.316,166.754 48.708 C 166.895 49.075,167.520 49.178,169.606 49.178 C 171.179 49.178,172.279 49.307,172.279 49.491 C 172.279 49.672,173.265 49.804,174.610 49.804 C 175.891 49.804,177.027 49.945,177.134 50.117 C 177.240 50.290,178.086 50.431,179.013 50.431 C 179.941 50.431,180.786 50.572,180.893 50.744 C 180.999 50.916,181.909 51.057,182.914 51.057 C 184.249 51.057,184.790 51.184,184.921 51.527 C 185.040 51.836,185.529 51.997,186.346 51.997 C 187.030 51.997,187.677 52.138,187.784 52.310 C 187.890 52.482,188.525 52.623,189.193 52.623 C 189.862 52.623,190.497 52.764,190.603 52.937 C 190.709 53.109,191.352 53.250,192.031 53.250 C 192.710 53.250,193.265 53.391,193.265 53.563 C 193.265 53.735,193.900 53.876,194.675 53.876 C 195.450 53.876,196.085 54.017,196.085 54.190 C 196.085 54.362,196.588 54.503,197.203 54.503 C 197.819 54.503,198.533 54.714,198.792 54.973 C 199.050 55.231,199.745 55.442,200.336 55.442 C 200.926 55.442,201.410 55.583,201.410 55.756 C 201.410 55.928,201.903 56.069,202.506 56.069 C 203.109 56.069,203.602 56.210,203.602 56.382 C 203.602 56.554,204.025 56.695,204.542 56.695 C 205.059 56.695,205.482 56.836,205.482 57.009 C 205.482 57.181,205.915 57.322,206.444 57.322 C 206.973 57.322,207.617 57.533,207.876 57.792 C 208.134 58.050,208.688 58.262,209.106 58.262 C 209.525 58.262,209.867 58.403,209.867 58.575 C 209.867 58.747,210.290 58.888,210.807 58.888 C 211.323 58.888,211.746 59.029,211.746 59.201 C 211.746 59.374,212.240 59.514,212.843 59.514 C 213.446 59.514,213.939 59.655,213.939 59.828 C 213.939 60.000,214.291 60.141,214.722 60.141 C 215.153 60.141,215.505 60.282,215.505 60.454 C 215.505 60.626,215.913 60.767,216.411 60.767 C 216.910 60.767,217.387 60.949,217.472 61.171 C 217.558 61.393,218.348 61.771,219.229 62.011 C 220.109 62.251,220.830 62.562,220.830 62.703 C 220.830 62.845,221.245 62.960,221.751 62.960 C 222.258 62.960,222.760 63.101,222.866 63.273 C 222.973 63.446,223.318 63.587,223.634 63.587 C 223.950 63.587,224.290 63.798,224.389 64.056 C 224.488 64.315,224.856 64.526,225.206 64.526 C 225.555 64.526,225.842 64.667,225.842 64.839 C 225.842 65.012,226.186 65.153,226.606 65.153 C 227.027 65.153,227.458 65.294,227.565 65.466 C 227.671 65.638,228.102 65.779,228.523 65.779 C 228.943 65.779,229.287 65.920,229.287 66.092 C 229.287 66.265,229.569 66.406,229.914 66.406 C 230.258 66.406,230.540 66.547,230.540 66.719 C 230.540 66.891,230.893 67.032,231.323 67.032 C 231.811 67.032,232.106 67.210,232.106 67.502 C 232.106 67.763,232.385 67.972,232.733 67.972 C 233.078 67.972,233.359 68.113,233.359 68.285 C 233.359 68.457,233.712 68.598,234.143 68.598 C 234.573 68.598,234.926 68.739,234.926 68.912 C 234.926 69.084,235.208 69.225,235.552 69.225 C 235.897 69.225,236.179 69.366,236.179 69.538 C 236.179 69.710,236.443 69.851,236.767 69.851 C 237.090 69.851,237.530 70.063,237.745 70.321 C 237.959 70.579,238.329 70.791,238.566 70.791 C 238.803 70.791,238.998 70.932,238.998 71.104 C 238.998 71.276,239.280 71.417,239.624 71.417 C 239.969 71.417,240.251 71.558,240.251 71.731 C 240.251 71.903,240.603 72.044,241.034 72.044 C 241.464 72.044,241.817 72.185,241.817 72.357 C 241.817 72.529,242.028 72.670,242.287 72.670 C 242.545 72.670,242.756 72.811,242.756 72.984 C 242.756 73.156,242.972 73.297,243.236 73.297 C 243.500 73.297,243.797 73.508,243.896 73.767 C 243.995 74.025,244.343 74.236,244.669 74.236 C 244.996 74.236,245.262 74.377,245.262 74.550 C 245.262 74.722,245.544 74.863,245.889 74.863 C 246.233 74.863,246.515 75.004,246.515 75.176 C 246.515 75.348,246.727 75.489,246.985 75.489 C 247.244 75.489,247.455 75.630,247.455 75.803 C 247.455 75.975,247.722 76.116,248.048 76.116 C 248.374 76.116,248.722 76.327,248.821 76.586 C 248.920 76.844,249.217 77.056,249.481 77.056 C 249.745 77.056,249.961 77.197,249.961 77.369 C 249.961 77.541,250.172 77.682,250.431 77.682 C 250.689 77.682,250.901 77.823,250.901 77.995 C 250.901 78.168,251.151 78.309,251.458 78.309 C 251.764 78.309,252.218 78.590,252.467 78.935 C 252.715 79.280,253.240 79.561,253.632 79.561 C 254.025 79.561,254.346 79.712,254.346 79.897 C 254.346 80.396,255.171 81.128,255.733 81.128 C 256.004 81.128,256.226 81.269,256.226 81.441 C 256.226 81.613,256.373 81.754,256.553 81.754 C 256.733 81.754,257.220 82.071,257.634 82.459 C 258.891 83.634,259.316 83.947,259.658 83.947 C 259.837 83.947,259.984 84.064,259.984 84.207 C 259.984 84.350,260.372 84.667,260.846 84.912 C 261.319 85.156,262.147 85.814,262.684 86.374 C 263.221 86.934,263.859 87.392,264.103 87.392 C 264.346 87.392,264.748 87.674,264.996 88.019 C 265.244 88.363,265.572 88.645,265.725 88.645 C 265.877 88.645,266.279 88.998,266.618 89.428 C 266.957 89.859,267.404 90.211,267.612 90.211 C 267.820 90.211,268.193 90.493,268.442 90.838 C 268.690 91.182,269.013 91.464,269.160 91.464 C 269.467 91.464,270.321 92.265,270.321 92.553 C 270.321 92.809,271.803 94.283,272.061 94.283 C 272.249 94.283,273.279 95.334,274.411 96.680 C 274.679 96.998,275.278 97.539,275.742 97.882 C 276.206 98.224,276.586 98.618,276.586 98.757 C 276.586 99.052,278.032 100.548,278.317 100.548 C 278.566 100.548,279.405 101.385,279.405 101.633 C 279.405 101.880,281.519 103.994,281.766 103.994 C 282.023 103.994,282.850 104.837,282.850 105.099 C 282.850 105.214,283.485 105.908,284.260 106.640 C 285.035 107.372,285.670 108.138,285.670 108.342 C 285.670 108.546,286.128 109.194,286.688 109.782 C 288.045 111.208,288.489 111.756,288.489 112.010 C 288.489 112.126,288.750 112.449,289.069 112.728 C 289.388 113.006,289.868 113.657,290.135 114.174 C 290.403 114.691,290.975 115.419,291.408 115.793 C 291.840 116.167,292.434 116.977,292.726 117.594 C 293.019 118.211,293.383 118.716,293.536 118.716 C 293.689 118.716,293.814 118.932,293.814 119.195 C 293.814 119.459,294.025 119.756,294.283 119.855 C 294.542 119.955,294.753 120.232,294.753 120.472 C 294.753 120.712,294.894 120.908,295.067 120.908 C 295.239 120.908,295.380 121.159,295.380 121.466 C 295.380 121.772,295.662 122.226,296.006 122.475 C 296.351 122.723,296.633 123.128,296.633 123.376 C 296.633 123.834,298.128 125.992,298.577 126.181 C 298.714 126.239,298.825 126.626,298.825 127.043 C 298.825 127.459,298.966 127.800,299.139 127.800 C 299.311 127.800,299.452 128.021,299.452 128.292 C 299.452 128.562,299.628 128.980,299.843 129.221 C 300.773 130.257,301.018 130.611,301.018 130.919 C 301.018 131.098,301.159 131.245,301.331 131.245 C 301.504 131.245,301.644 131.527,301.644 131.872 C 301.644 132.216,301.785 132.498,301.958 132.498 C 302.130 132.498,302.271 132.850,302.271 133.281 C 302.271 133.712,302.412 134.064,302.584 134.064 C 302.756 134.064,302.897 134.346,302.897 134.691 C 302.897 135.035,303.038 135.317,303.211 135.317 C 303.383 135.317,303.524 135.589,303.524 135.921 C 303.524 136.253,303.735 136.737,303.994 136.995 C 304.252 137.254,304.464 137.757,304.464 138.114 C 304.464 138.471,304.605 138.763,304.777 138.763 C 304.949 138.763,305.090 139.115,305.090 139.546 C 305.090 139.977,305.231 140.329,305.403 140.329 C 305.576 140.329,305.717 140.602,305.717 140.937 C 305.717 141.271,305.857 141.632,306.030 141.738 C 306.202 141.845,306.343 142.281,306.343 142.706 C 306.343 143.132,306.554 143.562,306.813 143.661 C 307.081 143.764,307.283 144.231,307.283 144.748 C 307.283 145.246,307.424 145.654,307.596 145.654 C 307.768 145.654,307.909 146.068,307.909 146.575 C 307.909 147.082,308.050 147.583,308.222 147.690 C 308.395 147.796,308.536 148.290,308.536 148.786 C 308.536 149.283,308.677 149.776,308.849 149.883 C 309.021 149.989,309.162 150.491,309.162 150.997 C 309.162 151.504,309.303 151.919,309.475 151.919 C 309.648 151.919,309.789 152.487,309.789 153.181 C 309.789 154.015,309.948 154.505,310.258 154.624 C 310.586 154.750,310.728 155.262,310.728 156.319 C 310.728 157.152,310.869 157.920,311.042 158.027 C 311.214 158.133,311.355 159.049,311.355 160.063 C 311.355 161.076,311.496 161.992,311.668 162.099 C 311.849 162.210,311.981 163.884,311.981 166.053 C 311.981 168.122,312.123 170.078,312.295 170.401 C 312.505 170.793,312.505 171.052,312.295 171.182 C 312.114 171.294,311.981 172.948,311.981 175.098 C 311.981 177.241,311.848 178.902,311.668 179.013 C 311.496 179.120,311.355 179.974,311.355 180.911 C 311.355 181.849,311.214 182.616,311.042 182.616 C 310.869 182.616,310.728 183.401,310.728 184.361 C 310.728 185.494,310.564 186.270,310.258 186.576 C 309.984 186.850,309.789 187.615,309.789 188.414 C 309.789 189.167,309.648 189.870,309.475 189.977 C 309.303 190.083,309.162 190.506,309.162 190.916 C 309.162 191.327,309.021 191.749,308.849 191.856 C 308.677 191.962,308.536 192.464,308.536 192.971 C 308.536 193.477,308.395 193.892,308.222 193.892 C 308.050 193.892,307.909 194.236,307.909 194.657 C 307.909 195.077,307.768 195.508,307.596 195.615 C 307.424 195.721,307.283 196.137,307.283 196.539 C 307.283 196.941,307.071 197.352,306.813 197.451 C 306.554 197.550,306.343 197.980,306.343 198.406 C 306.343 198.831,306.202 199.267,306.030 199.374 C 305.857 199.480,305.717 199.841,305.717 200.175 C 305.717 200.509,305.576 200.783,305.403 200.783 C 305.231 200.783,305.090 201.135,305.090 201.566 C 305.090 201.997,304.949 202.349,304.777 202.349 C 304.605 202.349,304.464 202.631,304.464 202.976 C 304.464 203.320,304.325 203.602,304.156 203.602 C 303.987 203.602,303.761 203.955,303.653 204.385 C 303.544 204.816,303.330 205.168,303.177 205.168 C 303.023 205.168,302.897 205.450,302.897 205.795 C 302.897 206.139,302.756 206.421,302.584 206.421 C 302.412 206.421,302.271 206.703,302.271 207.048 C 302.271 207.392,302.130 207.674,301.958 207.674 C 301.785 207.674,301.644 207.886,301.644 208.144 C 301.644 208.403,301.504 208.614,301.331 208.614 C 301.159 208.614,301.018 208.896,301.018 209.240 C 301.018 209.585,300.857 209.867,300.661 209.867 C 300.202 209.867,299.475 210.822,299.462 211.442 C 299.456 211.706,299.170 212.124,298.825 212.373 C 298.481 212.621,298.199 212.995,298.199 213.203 C 298.199 213.411,297.706 214.104,297.103 214.744 C 296.500 215.383,296.006 216.067,296.006 216.263 C 296.006 216.459,295.724 216.823,295.380 217.071 C 295.035 217.320,294.753 217.633,294.753 217.767 C 294.753 217.901,294.507 218.272,294.205 218.590 C 293.268 219.581,292.561 220.514,292.561 220.759 C 292.561 220.889,292.181 221.275,291.717 221.617 C 291.253 221.959,290.654 222.502,290.386 222.823 C 290.118 223.143,289.757 223.566,289.585 223.762 C 289.413 223.959,289.072 224.507,288.827 224.980 C 288.583 225.454,288.256 225.842,288.100 225.842 C 287.781 225.842,286.922 226.635,286.922 226.930 C 286.922 227.176,285.446 228.661,285.202 228.661 C 285.101 228.661,284.463 229.190,283.784 229.836 C 282.470 231.086,279.268 234.016,277.635 235.461 C 277.092 235.942,276.253 236.617,275.770 236.962 C 275.287 237.306,274.373 238.117,273.740 238.763 C 273.106 239.409,272.416 239.937,272.206 239.937 C 271.997 239.937,271.450 240.339,270.991 240.831 C 270.532 241.322,269.736 241.944,269.221 242.214 C 268.706 242.483,268.078 242.997,267.824 243.356 C 267.571 243.716,267.113 244.009,266.806 244.009 C 266.500 244.009,266.249 244.150,266.249 244.323 C 266.249 244.495,266.038 244.636,265.779 244.636 C 265.521 244.636,265.309 244.777,265.309 244.949 C 265.309 245.121,265.093 245.262,264.830 245.262 C 264.566 245.262,264.269 245.474,264.170 245.732 C 264.070 245.991,263.723 246.202,263.396 246.202 C 263.070 246.202,262.803 246.343,262.803 246.515 C 262.803 246.688,262.451 246.829,262.020 246.829 C 261.590 246.829,261.237 246.969,261.237 247.142 C 261.237 247.314,260.955 247.455,260.611 247.455 C 260.266 247.455,259.984 247.596,259.984 247.768 C 259.984 247.940,259.632 248.081,259.201 248.081 C 258.771 248.081,258.418 248.222,258.418 248.395 C 258.418 248.567,258.146 248.708,257.814 248.708 C 257.482 248.708,256.999 248.919,256.740 249.178 C 256.482 249.436,255.978 249.648,255.621 249.648 C 255.265 249.648,254.973 249.789,254.973 249.961 C 254.973 250.133,254.618 250.274,254.185 250.274 C 253.752 250.274,253.118 250.415,252.776 250.587 C 252.433 250.760,251.873 251.042,251.531 251.214 C 251.189 251.386,250.621 251.527,250.268 251.527 C 249.916 251.527,249.547 251.738,249.448 251.997 C 249.345 252.265,248.878 252.467,248.361 252.467 C 247.863 252.467,247.455 252.608,247.455 252.780 C 247.455 252.952,246.962 253.093,246.359 253.093 C 245.756 253.093,245.262 253.234,245.262 253.406 C 245.262 253.579,244.769 253.720,244.166 253.720 C 243.563 253.720,243.070 253.861,243.070 254.033 C 243.070 254.205,242.647 254.346,242.130 254.346 C 241.613 254.346,241.190 254.487,241.190 254.659 C 241.190 254.832,240.707 254.973,240.116 254.973 C 239.526 254.973,238.831 255.184,238.573 255.442 C 238.314 255.701,237.670 255.912,237.141 255.912 C 236.611 255.912,236.179 256.053,236.179 256.226 C 236.179 256.398,235.623 256.539,234.944 256.539 C 234.265 256.539,233.623 256.680,233.516 256.852 C 233.410 257.024,232.775 257.165,232.106 257.165 C 231.438 257.165,230.803 257.306,230.697 257.478 C 230.590 257.651,229.943 257.792,229.259 257.792 C 228.442 257.792,227.953 257.953,227.834 258.262 C 227.717 258.568,227.230 258.731,226.435 258.731 C 225.764 258.731,225.215 258.872,225.215 259.045 C 225.215 259.219,224.380 259.358,223.336 259.358 C 222.292 259.358,221.457 259.497,221.457 259.671 C 221.457 259.843,220.681 259.984,219.734 259.984 C 218.786 259.984,218.011 260.125,218.011 260.298 C 218.011 260.474,217.123 260.611,215.975 260.611 C 214.826 260.611,213.939 260.747,213.939 260.924 C 213.939 261.096,213.174 261.237,212.239 261.237 C 211.145 261.237,210.370 261.405,210.068 261.707 C 209.733 262.042,208.917 262.177,207.227 262.177 C 205.854 262.177,204.855 262.309,204.855 262.490 C 204.855 262.674,203.765 262.803,202.211 262.803 C 200.757 262.803,199.480 262.944,199.374 263.117 C 199.265 263.293,197.758 263.430,195.928 263.430 C 194.098 263.430,192.591 263.567,192.482 263.743 C 192.369 263.927,190.515 264.056,187.982 264.056 C 184.680 264.056,183.533 264.164,183.067 264.516 C 182.581 264.884,181.215 264.978,176.273 264.986 C 172.364 264.992,170.086 265.111,170.086 265.309 C 170.086 265.507,167.998 265.623,164.448 265.623 C 160.898 265.623,158.810 265.507,158.810 265.309 C 158.810 265.113,156.785 264.996,153.362 264.996 C 148.808 264.996,147.884 264.919,147.733 264.526 C 147.589 264.150,146.900 264.056,144.273 264.056 C 142.424 264.056,140.908 263.920,140.799 263.743 C 140.692 263.571,139.415 263.430,137.961 263.430 C 136.407 263.430,135.317 263.301,135.317 263.117 C 135.317 262.934,134.273 262.803,132.811 262.803 C 131.350 262.803,130.305 262.673,130.305 262.490 C 130.305 262.303,129.105 262.177,127.330 262.177 C 125.555 262.177,124.354 262.303,124.354 262.490 C 124.354 262.662,124.143 262.803,123.884 262.803 C 123.626 262.803,123.414 262.910,123.414 263.040 C 123.414 263.170,122.991 263.464,122.475 263.693 C 121.958 263.922,121.535 264.274,121.535 264.476 C 121.535 264.678,121.077 265.043,120.517 265.287 C 119.957 265.532,119.271 265.989,118.992 266.304 C 118.714 266.618,118.266 266.875,117.997 266.875 C 117.728 266.875,117.231 267.228,116.892 267.659 C 116.554 268.089,116.050 268.442,115.773 268.442 C 115.497 268.442,115.270 268.583,115.270 268.755 C 115.270 268.927,115.090 269.068,114.869 269.068 C 114.649 269.068,114.266 269.350,114.017 269.695 C 113.769 270.039,113.315 270.321,113.008 270.321 C 112.702 270.321,112.451 270.482,112.451 270.678 C 112.451 271.107,111.511 271.863,110.960 271.877 C 110.743 271.883,110.123 272.310,109.583 272.827 C 109.042 273.344,108.486 273.767,108.347 273.767 C 108.208 273.767,107.742 274.119,107.311 274.550 C 106.880 274.980,106.310 275.333,106.044 275.333 C 105.778 275.333,105.560 275.474,105.560 275.646 C 105.560 275.818,105.420 275.959,105.249 275.959 C 104.967 275.959,103.924 276.752,102.878 277.760 C 102.655 277.976,102.321 278.152,102.137 278.152 C 101.952 278.152,101.801 278.293,101.801 278.465 C 101.801 278.637,101.585 278.778,101.320 278.778 C 101.055 278.778,100.487 279.096,100.057 279.483 C 99.626 279.871,99.000 280.431,98.665 280.729 C 97.798 281.500,98.195 282.224,99.485 282.224 C 100.070 282.224,100.548 282.365,100.548 282.537 C 100.548 282.724,101.756 282.850,103.546 282.850 C 105.794 282.850,106.662 282.968,107.014 283.320 C 107.362 283.668,108.212 283.790,110.281 283.790 C 111.936 283.790,113.078 283.918,113.078 284.103 C 113.078 284.295,114.539 284.417,116.836 284.417 C 119.133 284.417,120.595 284.538,120.595 284.730 C 120.595 284.928,122.788 285.043,126.547 285.043 C 130.305 285.043,132.498 285.158,132.498 285.356 C 132.498 285.555,134.893 285.670,139.057 285.670 C 143.093 285.670,145.691 285.549,145.810 285.356 C 145.929 285.164,148.476 285.043,152.407 285.043 C 156.467 285.043,158.810 284.928,158.810 284.730 C 158.810 284.536,160.428 284.417,163.038 284.417 C 165.649 284.417,167.267 284.297,167.267 284.103 C 167.267 283.914,168.575 283.790,170.566 283.790 C 173.209 283.790,173.900 283.697,174.045 283.320 C 174.187 282.949,174.839 282.850,177.149 282.850 C 178.760 282.850,180.160 282.710,180.266 282.537 C 180.373 282.365,181.500 282.224,182.772 282.224 C 184.044 282.224,185.172 282.083,185.278 281.911 C 185.384 281.738,186.379 281.597,187.489 281.597 C 188.625 281.597,189.507 281.461,189.507 281.284 C 189.507 281.107,190.397 280.971,191.553 280.971 C 193.082 280.971,193.644 280.852,193.779 280.501 C 193.913 280.151,194.470 280.031,195.961 280.031 C 197.088 280.031,197.964 279.894,197.964 279.718 C 197.964 279.546,198.660 279.405,199.512 279.405 C 200.363 279.405,201.146 279.264,201.253 279.092 C 201.359 278.919,202.073 278.778,202.838 278.778 C 203.603 278.778,204.229 278.637,204.229 278.465 C 204.229 278.293,204.865 278.152,205.642 278.152 C 206.420 278.152,207.301 278.019,207.600 277.856 C 207.899 277.693,208.673 277.475,209.319 277.372 C 209.965 277.268,210.493 277.049,210.493 276.885 C 210.493 276.720,211.049 276.586,211.728 276.586 C 212.407 276.586,213.049 276.445,213.156 276.273 C 213.262 276.100,213.764 275.959,214.271 275.959 C 214.777 275.959,215.192 275.818,215.192 275.646 C 215.192 275.474,215.826 275.333,216.601 275.333 C 217.377 275.333,218.011 275.192,218.011 275.020 C 218.011 274.847,218.504 274.706,219.107 274.706 C 219.873 274.706,220.204 274.565,220.204 274.236 C 220.204 273.910,220.532 273.767,221.281 273.767 C 221.874 273.767,222.446 273.626,222.553 273.453 C 222.659 273.281,223.153 273.140,223.649 273.140 C 224.146 273.140,224.639 272.999,224.745 272.827 C 224.852 272.655,225.283 272.514,225.704 272.514 C 226.124 272.514,226.468 272.373,226.468 272.200 C 226.468 272.028,226.883 271.887,227.390 271.887 C 227.896 271.887,228.398 271.746,228.504 271.574 C 228.611 271.402,229.046 271.261,229.472 271.261 C 229.898 271.261,230.328 271.049,230.427 270.791 C 230.538 270.501,231.014 270.321,231.670 270.321 C 232.255 270.321,232.733 270.180,232.733 270.008 C 232.733 269.836,233.015 269.695,233.359 269.695 C 233.704 269.695,233.986 269.554,233.986 269.381 C 233.986 269.209,234.400 269.068,234.907 269.068 C 235.414 269.068,235.915 268.927,236.022 268.755 C 236.128 268.583,236.489 268.442,236.823 268.442 C 237.158 268.442,237.431 268.230,237.431 267.972 C 237.431 267.682,237.725 267.502,238.196 267.502 C 238.617 267.502,239.048 267.361,239.154 267.189 C 239.261 267.016,239.692 266.875,240.112 266.875 C 240.533 266.875,240.877 266.735,240.877 266.562 C 240.877 266.390,241.229 266.249,241.660 266.249 C 242.091 266.249,242.443 266.108,242.443 265.936 C 242.443 265.764,242.665 265.623,242.935 265.623 C 243.206 265.623,243.624 265.446,243.864 265.231 C 244.901 264.301,245.255 264.056,245.562 264.056 C 245.742 264.056,245.889 263.915,245.889 263.743 C 245.889 263.571,246.162 263.430,246.497 263.430 C 246.831 263.430,247.192 263.289,247.298 263.117 C 247.405 262.944,247.766 262.803,248.100 262.803 C 248.434 262.803,248.708 262.662,248.708 262.490 C 248.708 262.318,248.924 262.177,249.188 262.177 C 249.451 262.177,249.748 261.966,249.848 261.707 C 249.947 261.449,250.295 261.237,250.621 261.237 C 250.947 261.237,251.214 261.096,251.214 260.924 C 251.214 260.752,251.425 260.611,251.684 260.611 C 251.942 260.611,252.153 260.470,252.153 260.298 C 252.153 260.125,252.427 259.984,252.761 259.984 C 253.096 259.984,253.457 259.843,253.563 259.671 C 253.670 259.499,253.970 259.358,254.230 259.358 C 254.491 259.358,254.901 259.182,255.141 258.966 C 256.085 258.119,256.419 257.897,257.400 257.463 C 257.960 257.215,258.418 256.906,258.418 256.776 C 258.418 256.645,258.700 256.539,259.045 256.539 C 259.389 256.539,259.671 256.398,259.671 256.226 C 259.671 256.053,259.957 255.912,260.307 255.912 C 260.657 255.912,261.025 255.701,261.124 255.442 C 261.223 255.184,261.571 254.973,261.897 254.973 C 262.223 254.973,262.490 254.832,262.490 254.659 C 262.490 254.487,262.702 254.346,262.960 254.346 C 263.218 254.346,263.430 254.205,263.430 254.033 C 263.430 253.861,263.712 253.720,264.056 253.720 C 264.401 253.720,264.683 253.579,264.683 253.406 C 264.683 253.234,264.965 253.093,265.309 253.093 C 265.654 253.093,265.936 252.968,265.936 252.814 C 265.936 252.660,266.288 252.446,266.719 252.338 C 267.150 252.230,267.502 252.003,267.502 251.834 C 267.502 251.665,267.784 251.527,268.128 251.527 C 268.473 251.527,268.755 251.386,268.755 251.214 C 268.755 251.042,268.966 250.901,269.225 250.901 C 269.483 250.901,269.695 250.760,269.695 250.587 C 269.695 250.415,269.977 250.274,270.321 250.274 C 270.666 250.274,270.948 250.133,270.948 249.961 C 270.948 249.789,271.229 249.648,271.574 249.648 C 271.922 249.648,272.200 249.439,272.200 249.178 C 272.200 248.898,272.489 248.708,272.914 248.708 C 273.307 248.708,273.832 248.426,274.080 248.081 C 274.328 247.737,274.707 247.455,274.923 247.455 C 275.381 247.455,277.463 246.332,278.177 245.700 C 278.449 245.459,278.836 245.262,279.038 245.262 C 279.240 245.262,279.405 245.121,279.405 244.949 C 279.405 244.777,279.687 244.636,280.031 244.636 C 280.376 244.636,280.658 244.495,280.658 244.323 C 280.658 244.150,280.940 244.009,281.284 244.009 C 281.629 244.009,281.911 243.868,281.911 243.696 C 281.911 243.524,282.122 243.383,282.381 243.383 C 282.639 243.383,282.850 243.171,282.850 242.913 C 282.850 242.652,283.129 242.443,283.477 242.443 C 283.821 242.443,284.103 242.302,284.103 242.130 C 284.103 241.958,284.385 241.817,284.730 241.817 C 285.074 241.817,285.356 241.676,285.356 241.504 C 285.356 241.331,285.568 241.190,285.826 241.190 C 286.085 241.190,286.296 241.049,286.296 240.877 C 286.296 240.705,286.527 240.564,286.808 240.564 C 287.090 240.564,287.647 240.211,288.046 239.781 C 288.445 239.350,288.959 238.998,289.188 238.998 C 289.416 238.998,289.806 238.716,290.055 238.371 C 290.303 238.027,290.722 237.740,290.985 237.735 C 291.605 237.722,292.561 236.995,292.561 236.536 C 292.561 236.339,292.771 236.179,293.027 236.179 C 293.440 236.179,293.970 235.832,295.180 234.769 C 295.376 234.597,295.924 234.256,296.398 234.011 C 296.872 233.767,297.259 233.379,297.259 233.150 C 297.259 232.921,297.471 232.733,297.729 232.733 C 297.987 232.733,298.199 232.592,298.199 232.420 C 298.199 232.247,298.397 232.106,298.640 232.106 C 298.883 232.106,299.734 231.472,300.531 230.697 C 301.329 229.922,302.117 229.287,302.283 229.287 C 302.449 229.287,302.584 229.146,302.584 228.974 C 302.584 228.802,302.749 228.661,302.951 228.661 C 303.153 228.661,304.063 227.886,304.973 226.938 C 305.884 225.991,306.704 225.215,306.797 225.215 C 307.338 225.215,317.933 214.779,317.933 214.245 C 317.933 214.087,318.778 213.115,319.812 212.085 C 320.846 211.054,321.691 210.084,321.691 209.928 C 321.691 209.772,322.326 208.992,323.101 208.194 C 323.876 207.397,324.511 206.530,324.511 206.269 C 324.511 206.008,324.652 205.795,324.824 205.795 C 324.996 205.795,325.137 205.617,325.137 205.399 C 325.137 205.182,325.489 204.739,325.920 204.416 C 326.351 204.092,326.703 203.636,326.703 203.402 C 326.703 203.167,326.844 202.976,327.016 202.976 C 327.189 202.976,327.330 202.764,327.330 202.506 C 327.330 202.247,327.471 202.036,327.643 202.036 C 327.815 202.036,327.956 201.818,327.956 201.552 C 327.956 201.286,328.309 200.715,328.739 200.285 C 329.170 199.854,329.522 199.328,329.522 199.115 C 329.522 198.903,329.804 198.526,330.149 198.277 C 330.493 198.029,330.775 197.575,330.775 197.268 C 330.775 196.962,330.916 196.711,331.088 196.711 C 331.261 196.711,331.402 196.359,331.402 195.928 C 331.402 195.497,331.543 195.145,331.715 195.145 C 331.887 195.145,332.028 194.940,332.028 194.691 C 332.028 194.441,332.205 194.124,332.420 193.986 C 332.636 193.848,333.005 193.312,333.240 192.796 C 333.475 192.279,333.792 191.611,333.944 191.312 C 334.096 191.013,334.221 190.555,334.221 190.294 C 334.221 190.033,334.362 189.820,334.534 189.820 C 334.706 189.820,334.847 189.528,334.847 189.171 C 334.847 188.814,335.059 188.311,335.317 188.052 C 335.576 187.794,335.787 187.240,335.787 186.822 C 335.787 186.403,335.928 186.061,336.100 186.061 C 336.273 186.061,336.413 185.787,336.413 185.453 C 336.413 185.119,336.554 184.758,336.727 184.652 C 336.899 184.545,337.040 184.043,337.040 183.537 C 337.040 183.030,337.181 182.616,337.353 182.616 C 337.525 182.616,337.666 182.193,337.666 181.676 C 337.666 181.159,337.807 180.736,337.980 180.736 C 338.152 180.736,338.293 180.243,338.293 179.640 C 338.293 178.874,338.435 178.543,338.763 178.543 C 339.111 178.543,339.233 178.178,339.233 177.134 C 339.233 176.359,339.374 175.724,339.546 175.724 C 339.723 175.724,339.859 174.837,339.859 173.688 C 339.859 172.540,339.996 171.652,340.172 171.652 C 340.351 171.652,340.486 170.713,340.486 169.460 C 340.486 168.207,340.620 167.267,340.799 167.267 C 340.984 167.267,341.112 166.127,341.112 164.474 C 341.112 162.518,341.229 161.642,341.504 161.551 C 342.149 161.336,342.235 155.014,341.610 153.760 C 341.262 153.063,341.112 151.885,341.112 149.853 C 341.112 148.251,340.971 146.857,340.799 146.750 C 340.626 146.644,340.486 145.790,340.486 144.852 C 340.486 143.915,340.345 143.148,340.172 143.148 C 340.000 143.148,339.859 142.452,339.859 141.600 C 339.859 140.749,339.718 139.966,339.546 139.859 C 339.374 139.753,339.233 139.198,339.233 138.626 C 339.233 138.054,339.021 137.411,338.763 137.197 C 338.504 136.982,338.293 136.331,338.293 135.749 C 338.293 135.167,338.152 134.691,337.980 134.691 C 337.807 134.691,337.666 134.276,337.666 133.769 C 337.666 133.263,337.525 132.761,337.353 132.655 C 337.181 132.548,337.040 132.047,337.040 131.540 C 337.040 131.033,336.899 130.619,336.727 130.619 C 336.554 130.619,336.413 130.275,336.413 129.854 C 336.413 129.434,336.273 129.002,336.100 128.896 C 335.928 128.789,335.787 128.424,335.787 128.084 C 335.787 127.745,335.576 127.385,335.317 127.286 C 335.059 127.187,334.847 126.777,334.847 126.375 C 334.847 125.973,334.706 125.557,334.534 125.450 C 334.362 125.344,334.221 124.913,334.221 124.492 C 334.221 124.072,334.080 123.727,333.908 123.727 C 333.735 123.727,333.594 123.375,333.594 122.944 C 333.594 122.514,333.453 122.161,333.281 122.161 C 333.109 122.161,332.968 121.879,332.968 121.535 C 332.968 121.187,332.759 120.908,332.498 120.908 C 332.206 120.908,332.028 120.613,332.028 120.125 C 332.028 119.695,331.887 119.342,331.715 119.342 C 331.543 119.342,331.402 119.060,331.402 118.716 C 331.402 118.371,331.261 118.089,331.088 118.089 C 330.916 118.089,330.775 117.737,330.775 117.306 C 330.775 116.875,330.634 116.523,330.462 116.523 C 330.290 116.523,330.149 116.253,330.149 115.923 C 330.149 115.593,330.043 115.275,329.914 115.218 C 329.576 115.068,327.956 112.525,327.956 112.145 C 327.956 111.969,327.815 111.825,327.643 111.825 C 327.471 111.825,327.330 111.608,327.330 111.344 C 327.330 110.773,326.474 109.366,325.693 108.656 C 325.387 108.377,325.137 107.879,325.137 107.550 C 325.137 107.221,324.855 106.748,324.511 106.500 C 324.166 106.251,323.884 105.797,323.884 105.491 C 323.884 105.184,323.743 104.933,323.571 104.933 C 323.399 104.933,323.258 104.722,323.258 104.464 C 323.258 104.205,323.046 103.994,322.788 103.994 C 322.529 103.994,322.318 103.743,322.318 103.436 C 322.318 103.130,322.036 102.676,321.691 102.428 C 321.347 102.179,321.061 101.760,321.055 101.497 C 321.044 100.966,320.338 99.922,319.990 99.922 C 319.604 99.922,318.872 99.046,318.872 98.584 C 318.872 98.341,318.238 97.470,317.463 96.650 C 316.688 95.829,316.053 95.017,316.053 94.846 C 316.053 94.675,315.630 94.140,315.114 93.657 C 314.597 93.174,314.174 92.633,314.174 92.453 C 314.174 92.274,313.540 91.484,312.764 90.698 C 311.989 89.912,311.355 89.188,311.355 89.091 C 311.355 88.852,310.509 88.019,310.267 88.019 C 310.033 88.019,308.536 86.548,308.536 86.319 C 308.536 85.795,297.792 74.863,297.277 74.863 C 296.848 74.863,296.006 74.098,296.006 73.707 C 296.006 73.563,295.646 73.175,295.205 72.843 C 294.764 72.512,294.024 71.915,293.560 71.517 C 293.097 71.118,292.609 70.792,292.477 70.791 C 292.345 70.791,291.757 70.298,291.172 69.695 C 290.586 69.092,289.954 68.598,289.768 68.598 C 289.581 68.598,289.428 68.457,289.428 68.285 C 289.428 68.113,289.297 67.972,289.137 67.972 C 288.977 67.972,288.323 67.478,287.684 66.875 C 287.045 66.273,286.330 65.779,286.096 65.779 C 285.861 65.779,285.670 65.638,285.670 65.466 C 285.670 65.294,285.522 65.153,285.342 65.153 C 285.162 65.153,284.675 64.836,284.261 64.448 C 283.004 63.273,282.579 62.960,282.237 62.960 C 282.058 62.960,281.911 62.819,281.911 62.647 C 281.911 62.475,281.693 62.334,281.427 62.334 C 281.160 62.334,280.590 61.981,280.159 61.551 C 279.729 61.120,279.202 60.767,278.990 60.767 C 278.777 60.767,278.400 60.486,278.152 60.141 C 277.904 59.796,277.450 59.514,277.143 59.514 C 276.837 59.514,276.586 59.374,276.586 59.201 C 276.586 59.029,276.374 58.888,276.116 58.888 C 275.857 58.888,275.646 58.747,275.646 58.575 C 275.646 58.403,275.364 58.262,275.020 58.262 C 274.672 58.262,274.393 58.053,274.393 57.792 C 274.393 57.531,274.115 57.322,273.767 57.322 C 273.422 57.322,273.140 57.181,273.140 57.009 C 273.140 56.836,272.929 56.695,272.670 56.695 C 272.412 56.695,272.200 56.554,272.200 56.382 C 272.200 56.210,271.919 56.069,271.574 56.069 C 271.229 56.069,270.948 55.928,270.948 55.756 C 270.948 55.583,270.681 55.442,270.355 55.442 C 270.028 55.442,269.680 55.231,269.581 54.973 C 269.482 54.714,269.146 54.503,268.834 54.503 C 268.522 54.503,268.064 54.221,267.815 53.876 C 267.567 53.532,267.042 53.250,266.650 53.250 C 266.257 53.250,265.936 53.109,265.936 52.937 C 265.936 52.764,265.654 52.623,265.309 52.623 C 264.965 52.623,264.683 52.482,264.683 52.310 C 264.683 52.138,264.416 51.997,264.090 51.997 C 263.764 51.997,263.416 51.785,263.317 51.527 C 263.217 51.269,262.850 51.057,262.500 51.057 C 262.150 51.057,261.864 50.916,261.864 50.744 C 261.864 50.572,261.582 50.431,261.237 50.431 C 260.893 50.431,260.611 50.290,260.611 50.117 C 260.611 49.945,260.258 49.804,259.828 49.804 C 259.397 49.804,259.045 49.663,259.045 49.491 C 259.045 49.319,258.778 49.178,258.452 49.178 C 258.126 49.178,257.778 48.966,257.678 48.708 C 257.579 48.449,257.212 48.238,256.862 48.238 C 256.512 48.238,256.226 48.097,256.226 47.925 C 256.226 47.753,255.944 47.612,255.599 47.612 C 255.255 47.612,254.973 47.471,254.973 47.298 C 254.973 47.126,254.620 46.985,254.190 46.985 C 253.759 46.985,253.406 46.844,253.406 46.672 C 253.406 46.500,253.125 46.359,252.780 46.359 C 252.435 46.359,252.153 46.218,252.153 46.045 C 252.153 45.873,251.862 45.732,251.505 45.732 C 251.148 45.732,250.644 45.521,250.386 45.262 C 250.128 45.004,249.644 44.792,249.312 44.792 C 248.980 44.792,248.708 44.652,248.708 44.479 C 248.708 44.307,248.356 44.166,247.925 44.166 C 247.494 44.166,247.142 44.025,247.142 43.853 C 247.142 43.681,246.719 43.540,246.202 43.540 C 245.685 43.540,245.262 43.399,245.262 43.226 C 245.262 43.054,244.925 42.913,244.513 42.913 C 244.100 42.913,243.682 42.702,243.583 42.443 C 243.484 42.185,243.125 41.973,242.785 41.973 C 242.445 41.973,242.080 41.832,241.973 41.660 C 241.867 41.488,241.436 41.347,241.015 41.347 C 240.595 41.347,240.251 41.206,240.251 41.034 C 240.251 40.861,239.828 40.720,239.311 40.720 C 238.794 40.720,238.371 40.579,238.371 40.407 C 238.371 40.235,238.027 40.094,237.607 40.094 C 237.186 40.094,236.755 39.953,236.648 39.781 C 236.542 39.608,236.040 39.468,235.534 39.468 C 234.924 39.468,234.612 39.309,234.612 38.998 C 234.612 38.684,234.299 38.528,233.673 38.528 C 233.156 38.528,232.733 38.387,232.733 38.215 C 232.733 38.042,232.240 37.901,231.637 37.901 C 231.034 37.901,230.540 37.760,230.540 37.588 C 230.540 37.416,230.126 37.275,229.619 37.275 C 229.112 37.275,228.611 37.134,228.504 36.962 C 228.398 36.789,227.911 36.648,227.423 36.648 C 226.923 36.648,226.457 36.443,226.355 36.179 C 226.251 35.907,225.782 35.709,225.244 35.709 C 224.732 35.709,224.226 35.568,224.119 35.395 C 224.013 35.223,223.370 35.082,222.691 35.082 C 222.012 35.082,221.457 34.941,221.457 34.769 C 221.457 34.597,220.963 34.456,220.360 34.456 C 219.757 34.456,219.264 34.315,219.264 34.143 C 219.264 33.970,218.700 33.829,218.011 33.829 C 217.322 33.829,216.758 33.688,216.758 33.516 C 216.758 33.344,216.139 33.203,215.382 33.203 C 214.448 33.203,213.948 33.052,213.826 32.733 C 213.713 32.440,213.236 32.263,212.558 32.263 C 211.959 32.263,211.383 32.122,211.276 31.950 C 211.170 31.778,210.457 31.637,209.692 31.637 C 208.927 31.637,208.301 31.496,208.301 31.323 C 208.301 31.151,207.675 31.010,206.910 31.010 C 206.145 31.010,205.431 30.869,205.325 30.697 C 205.219 30.525,204.470 30.379,203.662 30.374 C 202.854 30.368,201.919 30.157,201.585 29.904 C 201.248 29.649,200.312 29.444,199.489 29.444 C 198.670 29.444,197.914 29.303,197.807 29.131 C 197.701 28.958,196.565 28.818,195.283 28.818 C 193.938 28.818,192.952 28.685,192.952 28.504 C 192.952 28.322,191.908 28.191,190.446 28.191 C 188.985 28.191,187.940 28.061,187.940 27.878 C 187.940 27.674,183.399 27.565,174.941 27.565 C 166.484 27.565,161.942 27.674,161.942 27.878 " stroke="none" fill="#fcfcfc" fill-rule="evenodd"></path><path id="path1" d="M146.750 108.692 C 146.642 108.867,145.181 109.005,143.443 109.005 C 141.576 109.005,140.329 109.131,140.329 109.319 C 140.329 109.491,139.695 109.632,138.919 109.632 C 138.144 109.632,137.510 109.773,137.510 109.945 C 137.510 110.117,137.016 110.258,136.413 110.258 C 135.810 110.258,135.317 110.399,135.317 110.572 C 135.317 110.744,135.062 110.885,134.751 110.885 C 134.439 110.885,133.910 111.092,133.576 111.345 C 133.242 111.598,132.580 111.809,132.106 111.815 C 131.633 111.820,131.245 111.966,131.245 112.138 C 131.245 112.310,130.893 112.451,130.462 112.451 C 130.031 112.451,129.679 112.592,129.679 112.764 C 129.679 112.937,129.432 113.084,129.131 113.093 C 128.829 113.101,128.089 113.374,127.486 113.700 C 126.883 114.025,125.861 114.545,125.215 114.855 C 124.569 115.165,124.041 115.526,124.041 115.657 C 124.041 115.789,123.759 115.897,123.414 115.897 C 123.070 115.897,122.788 116.038,122.788 116.210 C 122.788 116.382,122.506 116.523,122.161 116.523 C 121.817 116.523,121.535 116.661,121.535 116.830 C 121.535 116.999,121.182 117.226,120.752 117.334 C 120.321 117.442,119.969 117.656,119.969 117.810 C 119.969 117.964,119.792 118.092,119.577 118.096 C 119.362 118.100,118.833 118.379,118.403 118.716 C 117.972 119.053,117.373 119.331,117.071 119.335 C 116.770 119.339,116.523 119.483,116.523 119.655 C 116.523 119.828,116.307 119.969,116.043 119.969 C 115.780 119.969,115.483 120.180,115.383 120.439 C 115.284 120.697,114.972 120.912,114.688 120.915 C 114.405 120.919,113.821 121.198,113.391 121.535 C 112.960 121.872,112.431 122.151,112.216 122.154 C 112.001 122.158,111.825 122.302,111.825 122.475 C 111.825 122.647,111.537 122.788,111.185 122.788 C 110.598 122.788,110.335 122.938,109.230 123.903 C 109.020 124.086,108.391 124.438,107.831 124.685 C 107.271 124.931,106.813 125.240,106.813 125.370 C 106.813 125.500,106.531 125.607,106.186 125.607 C 105.842 125.607,105.560 125.748,105.560 125.920 C 105.560 126.092,105.382 126.233,105.165 126.233 C 104.948 126.233,104.390 126.586,103.926 127.016 C 103.461 127.447,102.872 127.800,102.616 127.800 C 102.361 127.800,102.064 127.940,101.958 128.113 C 101.851 128.285,101.491 128.426,101.156 128.426 C 100.822 128.426,100.548 128.541,100.548 128.681 C 100.548 128.822,100.055 129.172,99.452 129.459 C 98.849 129.747,98.356 130.125,98.356 130.300 C 98.356 130.475,98.074 130.619,97.729 130.619 C 97.384 130.619,97.103 130.760,97.103 130.932 C 97.103 131.104,96.821 131.245,96.476 131.245 C 96.132 131.245,95.850 131.386,95.850 131.558 C 95.850 131.731,95.638 131.872,95.380 131.872 C 95.121 131.872,94.910 132.013,94.910 132.185 C 94.910 132.357,94.694 132.498,94.430 132.498 C 94.166 132.498,93.879 132.685,93.791 132.915 C 93.703 133.144,93.143 133.522,92.548 133.756 C 91.952 133.990,91.464 134.296,91.464 134.436 C 91.464 134.576,91.182 134.691,90.838 134.691 C 90.493 134.691,90.211 134.816,90.211 134.968 C 90.211 135.121,89.718 135.480,89.115 135.766 C 88.512 136.052,88.019 136.421,88.019 136.585 C 88.019 136.749,87.737 136.883,87.392 136.883 C 87.048 136.883,86.766 137.024,86.766 137.197 C 86.766 137.369,86.554 137.510,86.296 137.510 C 86.038 137.510,85.826 137.651,85.826 137.823 C 85.826 137.995,85.605 138.136,85.334 138.136 C 85.063 138.136,84.645 138.312,84.405 138.528 C 83.369 139.457,83.014 139.702,82.707 139.702 C 82.527 139.702,82.381 139.843,82.381 140.016 C 82.381 140.188,82.130 140.329,81.823 140.329 C 81.517 140.329,81.063 140.611,80.814 140.955 C 80.566 141.300,80.166 141.582,79.926 141.582 C 79.685 141.582,78.817 142.075,77.995 142.678 C 77.174 143.281,76.371 143.774,76.211 143.774 C 76.052 143.774,75.648 144.028,75.314 144.338 C 74.980 144.648,74.248 145.172,73.688 145.502 C 73.128 145.832,72.670 146.213,72.670 146.348 C 72.670 146.483,72.388 146.594,72.044 146.594 C 71.699 146.594,71.417 146.718,71.417 146.871 C 71.417 147.024,70.920 147.385,70.312 147.673 C 69.704 147.962,69.036 148.471,68.827 148.805 C 68.618 149.139,68.226 149.413,67.956 149.413 C 67.685 149.413,67.161 149.695,66.791 150.039 C 66.421 150.384,65.992 150.666,65.838 150.666 C 65.684 150.666,65.177 151.018,64.712 151.449 C 64.248 151.879,63.694 152.232,63.483 152.232 C 63.271 152.232,62.895 152.514,62.647 152.858 C 62.398 153.203,61.945 153.485,61.638 153.485 C 61.331 153.485,61.081 153.626,61.081 153.798 C 61.081 153.970,60.930 154.111,60.745 154.111 C 60.560 154.111,60.213 154.287,59.973 154.503 C 58.936 155.432,58.582 155.677,58.275 155.677 C 58.095 155.677,57.948 155.818,57.948 155.991 C 57.948 156.163,57.666 156.304,57.322 156.304 C 56.977 156.304,56.695 156.419,56.695 156.559 C 56.695 156.699,56.202 157.050,55.599 157.337 C 54.996 157.625,54.503 158.003,54.503 158.178 C 54.503 158.353,54.252 158.496,53.945 158.496 C 53.639 158.496,53.185 158.778,52.937 159.123 C 52.688 159.468,52.253 159.749,51.970 159.749 C 51.184 159.749,49.762 161.332,49.862 162.096 C 49.948 162.754,48.243 164.761,47.598 164.761 C 47.430 164.761,46.850 165.184,46.309 165.701 C 45.769 166.218,45.146 166.641,44.925 166.641 C 44.705 166.641,44.248 166.993,43.909 167.424 C 43.570 167.854,43.066 168.207,42.790 168.207 C 42.513 168.207,42.287 168.348,42.287 168.520 C 42.287 168.692,42.106 168.833,41.886 168.833 C 41.666 168.833,41.282 169.115,41.034 169.460 C 40.785 169.804,40.397 170.086,40.172 170.086 C 39.946 170.086,39.680 170.298,39.581 170.556 C 39.482 170.814,39.204 171.026,38.964 171.026 C 38.724 171.026,38.528 171.143,38.528 171.286 C 38.528 171.429,38.140 171.746,37.666 171.990 C 37.193 172.235,36.735 172.506,36.648 172.593 C 36.562 172.681,35.928 173.167,35.239 173.674 C 34.550 174.181,33.758 174.850,33.479 175.160 C 33.201 175.470,32.774 175.724,32.531 175.724 C 32.065 175.724,31.010 176.790,31.010 177.261 C 31.010 177.916,34.541 178.226,34.926 177.604 C 35.032 177.431,35.376 177.291,35.689 177.291 C 36.002 177.291,36.434 177.079,36.648 176.821 C 36.863 176.562,37.373 176.351,37.783 176.351 C 38.193 176.351,38.528 176.210,38.528 176.038 C 38.528 175.865,38.810 175.724,39.154 175.724 C 39.499 175.724,39.781 175.612,39.781 175.474 C 39.781 175.336,40.274 175.045,40.877 174.827 C 41.480 174.609,41.973 174.229,41.973 173.981 C 41.973 173.711,42.285 173.532,42.756 173.532 C 43.187 173.532,43.540 173.391,43.540 173.218 C 43.540 173.046,43.821 172.905,44.166 172.905 C 44.511 172.905,44.792 172.764,44.792 172.592 C 44.792 172.420,45.074 172.279,45.419 172.279 C 45.764 172.279,46.045 172.138,46.045 171.966 C 46.045 171.793,46.257 171.652,46.515 171.652 C 46.774 171.652,46.985 171.511,46.985 171.339 C 46.985 171.167,47.201 171.026,47.465 171.026 C 47.729 171.026,48.026 170.814,48.125 170.556 C 48.224 170.298,48.537 170.083,48.820 170.079 C 49.103 170.075,49.687 169.797,50.117 169.460 C 50.548 169.123,51.077 168.844,51.292 168.840 C 51.507 168.836,51.684 168.692,51.684 168.520 C 51.684 168.348,51.970 168.207,52.320 168.207 C 52.670 168.207,53.037 167.995,53.137 167.737 C 53.236 167.478,53.478 167.264,53.675 167.260 C 53.872 167.256,54.385 166.977,54.816 166.641 C 55.247 166.304,55.846 166.025,56.147 166.021 C 56.449 166.017,56.695 165.899,56.695 165.759 C 56.695 165.619,57.189 165.268,57.792 164.981 C 58.395 164.693,58.888 164.315,58.888 164.140 C 58.888 163.965,59.170 163.821,59.514 163.821 C 59.859 163.821,60.141 163.681,60.141 163.508 C 60.141 163.336,60.423 163.195,60.767 163.195 C 61.112 163.195,61.394 163.054,61.394 162.882 C 61.394 162.709,61.605 162.569,61.864 162.569 C 62.122 162.569,62.334 162.428,62.334 162.255 C 62.334 162.083,62.616 161.942,62.960 161.942 C 63.308 161.942,63.587 161.733,63.587 161.472 C 63.587 161.211,63.865 161.002,64.213 161.002 C 64.558 161.002,64.839 160.888,64.839 160.748 C 64.839 160.607,65.333 160.299,65.936 160.063 C 66.539 159.826,67.032 159.518,67.032 159.378 C 67.032 159.238,67.299 159.123,67.626 159.123 C 67.952 159.123,68.551 158.773,68.957 158.345 C 69.363 157.918,69.871 157.565,70.086 157.562 C 70.301 157.559,70.478 157.416,70.478 157.244 C 70.478 157.071,70.724 156.927,71.026 156.923 C 71.327 156.920,71.926 156.641,72.357 156.304 C 72.788 155.967,73.301 155.688,73.498 155.684 C 73.695 155.681,73.937 155.466,74.037 155.208 C 74.136 154.949,74.503 154.738,74.853 154.738 C 75.203 154.738,75.489 154.618,75.489 154.471 C 75.489 154.325,76.397 153.744,77.506 153.181 C 78.615 152.618,79.598 151.963,79.689 151.725 C 79.780 151.487,80.141 151.292,80.491 151.292 C 80.841 151.292,81.128 151.151,81.128 150.979 C 81.128 150.807,81.378 150.666,81.685 150.666 C 81.991 150.666,82.445 150.384,82.694 150.039 C 82.942 149.695,83.376 149.413,83.659 149.413 C 83.941 149.413,84.437 149.060,84.760 148.630 C 85.084 148.199,85.597 147.847,85.901 147.847 C 86.204 147.847,86.453 147.706,86.453 147.533 C 86.453 147.361,86.664 147.220,86.922 147.220 C 87.181 147.220,87.392 147.079,87.392 146.907 C 87.392 146.735,87.594 146.594,87.839 146.594 C 88.085 146.594,88.564 146.241,88.903 145.810 C 89.241 145.380,89.718 145.027,89.963 145.027 C 90.207 145.027,90.709 144.745,91.079 144.401 C 91.449 144.056,91.878 143.774,92.032 143.774 C 92.186 143.774,92.658 143.457,93.080 143.070 C 93.502 142.682,94.227 142.165,94.692 141.920 C 95.156 141.676,95.536 141.359,95.536 141.216 C 95.536 141.073,95.748 140.955,96.006 140.955 C 96.265 140.955,96.476 140.814,96.476 140.642 C 96.476 140.470,96.725 140.329,97.028 140.329 C 97.332 140.329,97.845 139.977,98.168 139.546 C 98.492 139.115,98.953 138.763,99.193 138.763 C 99.433 138.763,100.110 138.305,100.698 137.745 C 102.341 136.180,102.836 135.873,105.247 134.925 C 105.677 134.756,106.275 134.493,106.574 134.341 C 106.873 134.189,107.331 134.064,107.592 134.064 C 107.852 134.064,108.066 133.923,108.066 133.751 C 108.066 133.579,108.321 133.438,108.632 133.438 C 108.944 133.438,109.473 133.231,109.807 132.978 C 110.141 132.725,110.662 132.513,110.963 132.508 C 111.265 132.503,111.511 132.357,111.511 132.185 C 111.511 132.013,112.146 131.872,112.921 131.872 C 113.696 131.872,114.330 131.731,114.330 131.558 C 114.330 131.386,115.106 131.245,116.053 131.245 C 117.001 131.245,117.776 131.104,117.776 130.932 C 117.776 130.756,118.651 130.619,119.774 130.619 C 121.167 130.619,121.889 130.477,122.161 130.149 C 122.671 129.535,127.677 129.466,127.877 130.070 C 127.968 130.342,129.034 130.495,131.349 130.569 C 133.187 130.628,134.691 130.804,134.691 130.960 C 134.691 131.117,135.466 131.245,136.413 131.245 C 137.361 131.245,138.136 131.386,138.136 131.558 C 138.136 131.731,138.771 131.872,139.546 131.872 C 140.321 131.872,140.955 132.013,140.955 132.185 C 140.955 132.357,141.388 132.498,141.917 132.498 C 142.447 132.498,143.091 132.709,143.349 132.968 C 143.608 133.226,144.083 133.438,144.405 133.438 C 144.727 133.438,145.078 133.579,145.184 133.751 C 145.290 133.923,145.713 134.064,146.124 134.064 C 146.534 134.064,146.957 134.205,147.063 134.377 C 147.170 134.550,147.531 134.691,147.865 134.691 C 148.199 134.691,148.473 134.832,148.473 135.004 C 148.473 135.176,148.825 135.317,149.256 135.317 C 149.687 135.317,150.039 135.458,150.039 135.630 C 150.039 135.803,150.321 135.944,150.666 135.944 C 151.010 135.944,151.292 136.078,151.292 136.242 C 151.292 136.406,151.785 136.775,152.388 137.061 C 152.991 137.347,153.485 137.706,153.485 137.859 C 153.485 138.011,153.767 138.136,154.111 138.136 C 154.456 138.136,154.738 138.277,154.738 138.449 C 154.738 138.622,154.920 138.763,155.142 138.763 C 155.365 138.763,156.038 139.221,156.637 139.781 C 157.237 140.341,158.147 141.010,158.660 141.269 C 159.730 141.808,160.376 142.361,160.376 142.738 C 160.376 142.882,160.750 143.279,161.208 143.622 C 161.665 143.964,162.426 144.597,162.899 145.027 C 163.373 145.458,164.148 146.092,164.622 146.437 C 165.798 147.291,167.267 148.678,167.267 148.934 C 167.267 149.198,168.096 150.039,168.355 150.039 C 168.592 150.039,170.086 151.512,170.086 151.745 C 170.086 151.920,170.920 152.935,172.279 154.414 C 172.709 154.883,173.342 155.641,173.684 156.099 C 174.027 156.556,174.424 156.930,174.568 156.930 C 174.861 156.930,175.724 157.729,175.724 158.001 C 175.724 158.232,176.612 159.328,177.682 160.418 C 178.156 160.900,178.543 161.384,178.543 161.493 C 178.543 161.602,179.178 162.290,179.953 163.022 C 180.728 163.755,181.363 164.516,181.363 164.714 C 181.363 164.912,181.504 165.074,181.676 165.074 C 181.848 165.074,181.989 165.220,181.989 165.398 C 181.989 165.797,193.140 176.977,193.538 176.977 C 193.696 176.977,193.906 177.189,194.005 177.447 C 194.104 177.706,194.370 177.917,194.596 177.917 C 194.822 177.917,195.210 178.199,195.458 178.543 C 195.706 178.888,196.090 179.170,196.310 179.170 C 196.531 179.170,196.711 179.311,196.711 179.483 C 196.711 179.655,196.993 179.796,197.338 179.796 C 197.682 179.796,197.964 179.957,197.964 180.153 C 197.964 180.635,198.931 181.340,199.608 181.353 C 199.910 181.358,200.157 181.504,200.157 181.676 C 200.157 181.848,200.439 181.989,200.783 181.989 C 201.128 181.989,201.410 182.130,201.410 182.302 C 201.410 182.475,201.691 182.616,202.036 182.616 C 202.381 182.616,202.662 182.754,202.662 182.923 C 202.662 183.092,203.015 183.318,203.446 183.427 C 203.876 183.535,204.229 183.749,204.229 183.902 C 204.229 184.056,204.475 184.184,204.777 184.186 C 205.418 184.192,207.565 184.908,207.877 185.220 C 207.995 185.338,208.553 185.435,209.118 185.435 C 209.682 185.435,210.230 185.576,210.337 185.748 C 210.443 185.920,210.998 186.061,211.570 186.061 C 212.142 186.061,212.785 186.273,212.999 186.531 C 213.236 186.816,213.922 187.001,214.742 187.001 C 215.486 187.001,216.182 187.142,216.288 187.314 C 216.395 187.486,217.381 187.627,218.481 187.627 C 219.580 187.627,220.567 187.768,220.673 187.940 C 220.780 188.113,222.119 188.254,223.649 188.254 C 225.179 188.254,226.518 188.395,226.625 188.567 C 226.743 188.758,229.178 188.880,232.882 188.880 C 237.454 188.880,238.978 188.976,239.076 189.272 C 239.175 189.571,240.996 189.663,246.760 189.663 C 252.386 189.663,254.414 189.563,254.706 189.272 C 254.979 188.999,256.318 188.880,259.107 188.880 C 261.571 188.880,263.117 188.759,263.117 188.567 C 263.117 188.388,264.056 188.254,265.309 188.254 C 266.562 188.254,267.502 188.119,267.502 187.940 C 267.502 187.768,268.198 187.627,269.050 187.627 C 269.901 187.627,270.684 187.486,270.791 187.314 C 270.897 187.142,271.459 187.001,272.040 187.001 C 272.620 187.001,273.307 186.789,273.565 186.531 C 273.824 186.273,274.389 186.061,274.822 186.061 C 275.255 186.061,275.696 185.920,275.803 185.748 C 275.909 185.576,276.411 185.435,276.917 185.435 C 277.424 185.435,277.839 185.294,277.839 185.121 C 277.839 184.949,278.332 184.808,278.935 184.808 C 279.538 184.808,280.031 184.667,280.031 184.495 C 280.031 184.323,280.402 184.182,280.856 184.182 C 281.392 184.182,282.041 183.799,282.714 183.085 C 283.283 182.482,283.969 181.989,284.239 181.989 C 284.509 181.989,284.730 181.872,284.730 181.729 C 284.730 181.586,285.082 181.280,285.513 181.049 C 285.944 180.819,286.296 180.454,286.296 180.240 C 286.296 180.025,286.719 179.662,287.236 179.433 C 287.753 179.204,288.175 178.910,288.175 178.780 C 288.175 178.650,288.323 178.543,288.503 178.543 C 288.683 178.543,289.163 178.226,289.570 177.839 C 290.287 177.155,290.759 176.776,292.701 175.320 C 293.210 174.940,293.879 174.381,294.189 174.080 C 294.500 173.778,294.863 173.532,294.997 173.532 C 295.132 173.532,295.445 173.250,295.693 172.905 C 295.941 172.561,296.313 172.279,296.519 172.279 C 296.725 172.279,297.574 171.644,298.407 170.869 C 299.239 170.094,300.097 169.460,300.313 169.460 C 300.528 169.460,300.705 169.343,300.705 169.199 C 300.705 169.056,301.057 168.750,301.488 168.520 C 301.919 168.289,302.271 167.948,302.271 167.760 C 302.271 167.573,302.665 167.245,303.148 167.032 C 303.630 166.818,304.581 166.151,305.262 165.548 C 307.029 163.983,307.234 163.821,307.448 163.821 C 308.495 163.821,309.003 161.516,307.987 161.372 C 307.600 161.317,307.283 161.423,307.283 161.607 C 307.283 161.791,306.930 161.942,306.500 161.942 C 306.069 161.942,305.717 162.083,305.717 162.255 C 305.717 162.428,305.294 162.569,304.777 162.569 C 304.260 162.569,303.837 162.709,303.837 162.882 C 303.837 163.054,303.493 163.195,303.073 163.195 C 302.652 163.195,302.221 163.336,302.114 163.508 C 302.008 163.681,301.594 163.821,301.194 163.821 C 300.795 163.821,300.293 164.033,300.078 164.291 C 299.864 164.550,299.291 164.761,298.806 164.761 C 298.320 164.761,297.836 164.902,297.729 165.074 C 297.623 165.247,297.050 165.388,296.458 165.388 C 295.865 165.388,295.380 165.529,295.380 165.701 C 295.380 165.873,294.745 166.014,293.970 166.014 C 293.195 166.014,292.561 166.155,292.561 166.327 C 292.561 166.500,291.814 166.641,290.901 166.641 C 289.987 166.641,289.106 166.767,288.943 166.921 C 288.779 167.075,287.668 167.260,286.473 167.331 C 285.175 167.409,284.250 167.611,284.175 167.834 C 284.087 168.099,282.754 168.207,279.554 168.207 C 276.894 168.207,274.977 168.335,274.863 168.520 C 274.754 168.696,273.241 168.833,271.399 168.833 C 269.427 168.833,268.128 168.709,268.128 168.520 C 268.128 168.321,265.748 168.207,261.613 168.207 C 257.031 168.207,254.988 168.097,254.729 167.838 C 254.526 167.635,253.123 167.408,251.612 167.334 C 250.101 167.260,248.731 167.073,248.567 166.920 C 248.403 166.766,247.381 166.641,246.296 166.641 C 245.189 166.641,244.323 166.503,244.323 166.327 C 244.323 166.155,243.547 166.014,242.600 166.014 C 241.652 166.014,240.877 165.873,240.877 165.701 C 240.877 165.529,240.392 165.388,239.799 165.388 C 239.206 165.388,238.634 165.247,238.528 165.074 C 238.421 164.902,237.864 164.761,237.290 164.761 C 236.651 164.761,236.176 164.579,236.065 164.291 C 235.966 164.033,235.536 163.821,235.111 163.821 C 234.685 163.821,234.249 163.681,234.143 163.508 C 234.036 163.336,233.675 163.195,233.341 163.195 C 233.007 163.195,232.733 163.054,232.733 162.882 C 232.733 162.709,232.381 162.569,231.950 162.569 C 231.519 162.569,231.167 162.428,231.167 162.255 C 231.167 162.083,230.885 161.942,230.540 161.942 C 230.196 161.942,229.914 161.804,229.914 161.635 C 229.914 161.466,229.561 161.239,229.131 161.131 C 228.700 161.023,228.348 160.809,228.348 160.655 C 228.348 160.502,228.097 160.376,227.790 160.376 C 227.484 160.376,227.030 160.094,226.782 159.749 C 226.533 159.405,226.114 159.118,225.851 159.113 C 225.320 159.102,224.276 158.396,224.276 158.048 C 224.276 157.704,223.586 157.133,222.553 156.623 C 222.036 156.367,221.331 155.815,220.987 155.396 C 220.642 154.977,220.098 154.411,219.778 154.138 C 218.477 153.028,211.119 145.616,211.113 145.408 C 211.109 145.285,210.616 144.763,210.017 144.247 C 209.417 143.732,208.927 143.193,208.927 143.050 C 208.927 142.907,208.751 142.612,208.536 142.394 C 208.320 142.177,207.864 141.623,207.522 141.164 C 207.179 140.705,206.782 140.329,206.638 140.329 C 206.335 140.329,205.482 139.526,205.482 139.241 C 205.482 139.134,205.164 138.722,204.777 138.325 C 203.726 137.247,202.662 135.962,202.662 135.769 C 202.662 135.412,189.506 122.509,188.591 121.969 C 188.061 121.656,187.627 121.289,187.627 121.154 C 187.627 121.019,187.416 120.908,187.157 120.908 C 186.899 120.908,186.688 120.709,186.688 120.465 C 186.688 120.221,186.265 119.834,185.748 119.605 C 185.231 119.376,184.808 119.083,184.808 118.953 C 184.808 118.822,184.597 118.716,184.338 118.716 C 184.080 118.716,183.868 118.575,183.868 118.403 C 183.868 118.230,183.642 118.089,183.365 118.089 C 183.089 118.089,182.585 117.737,182.246 117.306 C 181.908 116.875,181.359 116.523,181.027 116.523 C 180.695 116.523,180.423 116.382,180.423 116.210 C 180.423 116.038,180.141 115.897,179.796 115.897 C 179.452 115.897,179.170 115.756,179.170 115.583 C 179.170 115.411,178.896 115.270,178.562 115.270 C 178.228 115.270,177.867 115.129,177.760 114.957 C 177.654 114.785,177.293 114.644,176.959 114.644 C 176.624 114.644,176.351 114.432,176.351 114.174 C 176.351 113.881,176.055 113.704,175.568 113.704 C 175.137 113.704,174.785 113.563,174.785 113.391 C 174.785 113.218,174.503 113.078,174.158 113.078 C 173.814 113.078,173.532 112.937,173.532 112.764 C 173.532 112.592,173.038 112.451,172.435 112.451 C 171.832 112.451,171.339 112.310,171.339 112.138 C 171.339 111.966,170.916 111.825,170.399 111.825 C 169.883 111.825,169.460 111.690,169.460 111.526 C 169.460 111.361,168.931 111.142,168.285 111.039 C 167.639 110.935,166.866 110.717,166.567 110.555 C 166.267 110.392,165.536 110.258,164.941 110.258 C 164.345 110.258,163.771 110.117,163.665 109.945 C 163.558 109.773,162.642 109.632,161.629 109.632 C 160.615 109.632,159.699 109.491,159.593 109.319 C 159.483 109.141,157.919 109.005,155.972 109.005 C 153.896 109.005,152.545 108.882,152.545 108.692 C 152.545 108.507,151.403 108.379,149.744 108.379 C 148.204 108.379,146.857 108.520,146.750 108.692 " stroke="none" fill="#cc4343" fill-rule="evenodd"></path><path id="path2" d="" stroke="none" fill="#fcbc100" fill-rule="evenodd"></path><path id="path3" d="" stroke="none" fill="#fcbc100" fill-rule="evenodd"></path><path id="path4" d="" stroke="none" fill="#fcbc100" fill-rule="evenodd"></path></g></svg>